<?xml version="1.0" encoding="utf-8"?>
<svg width="150px" height="150px" viewBox="0 0 150 150" version="1.1" xmlns:xlink="http://www.w3.org/1999/xlink" xmlns="http://www.w3.org/2000/svg">
  <path d="M83.9434 17.8867L142.765 135.529Q142.907 135.814 143.031 136.107Q143.155 136.399 143.259 136.7Q143.365 137 143.45 137.306Q143.536 137.612 143.602 137.923Q143.668 138.234 143.714 138.549Q143.76 138.863 143.787 139.18Q143.813 139.497 143.819 139.815Q143.824 140.133 143.81 140.45Q143.796 140.768 143.761 141.084Q143.727 141.4 143.673 141.713Q143.618 142.027 143.544 142.336Q143.47 142.645 143.376 142.949Q143.282 143.253 143.169 143.55Q143.056 143.847 142.925 144.137Q142.793 144.426 142.644 144.707Q142.494 144.987 142.327 145.258Q142.16 145.528 141.976 145.788Q141.792 146.047 141.592 146.294Q141.392 146.541 141.176 146.775Q140.961 147.009 140.731 147.229Q140.501 147.448 140.258 147.653Q140.014 147.858 139.759 148.046Q139.503 148.235 139.236 148.407Q138.968 148.58 138.69 148.734Q138.413 148.889 138.126 149.026Q137.839 149.163 137.544 149.281Q137.249 149.4 136.947 149.499Q136.645 149.598 136.337 149.678Q136.029 149.758 135.717 149.819Q135.405 149.879 135.089 149.919Q134.774 149.96 134.457 149.98Q134.139 150 133.821 150L16.1787 150Q15.8608 150 15.5434 149.98Q15.2261 149.96 14.9107 149.919Q14.5953 149.879 14.2832 149.819Q13.971 149.758 13.6632 149.678Q13.3555 149.598 13.0535 149.499Q12.7514 149.4 12.4563 149.281Q12.1612 149.163 11.8743 149.026Q11.5873 148.889 11.3096 148.734Q11.0318 148.58 10.7645 148.407Q10.4972 148.235 10.2414 148.046Q9.98556 147.858 9.74224 147.653Q9.49891 147.448 9.26909 147.229Q9.03926 147.009 8.82386 146.775Q8.60845 146.541 8.40834 146.294Q8.20824 146.047 8.02423 145.788Q7.84022 145.528 7.67306 145.258Q7.5059 144.987 7.35627 144.707Q7.20663 144.426 7.07512 144.137Q6.94361 143.847 6.83075 143.55Q6.7179 143.253 6.62416 142.949Q6.53042 142.645 6.45617 142.336Q6.38192 142.027 6.32746 141.714Q6.27301 141.4 6.23857 141.084Q6.20412 140.768 6.18983 140.45Q6.17554 140.133 6.18146 139.815Q6.18738 139.497 6.21348 139.18Q6.23958 138.863 6.28577 138.549Q6.33195 138.234 6.39803 137.923Q6.4641 137.612 6.54981 137.306Q6.63551 137 6.74049 136.7Q6.84548 136.399 6.96932 136.107Q7.09316 135.814 7.23535 135.529L66.0566 17.8867Q66.2114 17.5772 66.3872 17.2791Q66.563 16.981 66.759 16.6957Q66.955 16.4105 67.1703 16.1395Q67.3855 15.8685 67.619 15.613Q67.8525 15.3576 68.1031 15.1188Q68.3536 14.8801 68.6201 14.6593Q68.8866 14.4385 69.1677 14.2366Q69.4488 14.0347 69.7432 13.8528Q70.0376 13.6708 70.3439 13.5097Q70.6502 13.3485 70.9669 13.2089Q71.2835 13.0693 71.6091 12.952Q71.9347 12.8346 72.2676 12.74Q72.6005 12.6454 72.9392 12.5741Q73.2778 12.5028 73.6206 12.455Q73.9634 12.4073 74.3087 12.3834Q74.6539 12.3594 75 12.3594Q75.3461 12.3594 75.6913 12.3834Q76.0366 12.4073 76.3794 12.455Q76.7221 12.5028 77.0608 12.5741Q77.3995 12.6454 77.7324 12.74Q78.0653 12.8346 78.3909 12.952Q78.7165 13.0693 79.0331 13.2089Q79.3498 13.3485 79.6561 13.5097Q79.9624 13.6708 80.2568 13.8528Q80.5512 14.0347 80.8323 14.2366Q81.1134 14.4385 81.3799 14.6593Q81.6464 14.8801 81.8969 15.1188Q82.1475 15.3576 82.381 15.613Q82.6145 15.8685 82.8297 16.1395Q83.045 16.4105 83.241 16.6957Q83.437 16.981 83.6128 17.2791Q83.7886 17.5772 83.9434 17.8867Z" id="Triangle" fill="#FC4850" fill-rule="evenodd" stroke="none" />
</svg>