<?xml version="1.0" encoding="utf-8"?>
<svg width="224px" height="72px" viewBox="0 0 224 72" version="1.1" xmlns:xlink="http://www.w3.org/1999/xlink" xmlns="http://www.w3.org/2000/svg">
  <path d="M35.999 0L188.001 0Q188.885 0 189.767 0.0433624Q190.65 0.0867247 191.53 0.173345Q192.409 0.259965 193.283 0.389635Q194.157 0.519304 195.024 0.69171Q195.891 0.864117 196.748 1.07884Q197.605 1.29357 198.451 1.5501Q199.297 1.80664 200.129 2.10435Q200.961 2.40207 201.777 2.74026Q202.594 3.07845 203.393 3.45629Q204.191 3.83413 204.971 4.25072Q205.75 4.6673 206.508 5.12163Q207.266 5.57595 208.001 6.06692Q208.736 6.5579 209.446 7.08433Q210.155 7.61076 210.839 8.17139Q211.522 8.73202 212.176 9.3255Q212.831 9.91897 213.456 10.5439Q214.081 11.1687 214.674 11.8235Q215.268 12.4783 215.829 13.1615Q216.389 13.8446 216.916 14.5544Q217.442 15.2642 217.933 15.999Q218.424 16.7338 218.878 17.4918Q219.333 18.2498 219.749 19.0292Q220.166 19.8086 220.544 20.6074Q220.922 21.4063 221.26 22.2228Q221.598 23.0392 221.896 23.8713Q222.193 24.7034 222.45 25.549Q222.706 26.3947 222.921 27.2519Q223.136 28.1092 223.308 28.9759Q223.481 29.8427 223.61 30.7168Q223.74 31.591 223.827 32.4705Q223.913 33.3499 223.957 34.2326Q224 35.1153 224 35.999L224 36.001Q224 36.8847 223.957 37.7674Q223.913 38.6501 223.827 39.5295Q223.74 40.409 223.61 41.2831Q223.481 42.1573 223.308 43.0241Q223.136 43.8908 222.921 44.748Q222.706 45.6053 222.45 46.451Q222.193 47.2966 221.896 48.1287Q221.598 48.9608 221.26 49.7772Q220.922 50.5937 220.544 51.3925Q220.166 52.1914 219.749 52.9708Q219.333 53.7502 218.878 54.5082Q218.424 55.2662 217.933 56.001Q217.442 56.7358 216.916 57.4456Q216.389 58.1554 215.829 58.8385Q215.268 59.5216 214.674 60.1764Q214.081 60.8312 213.456 61.4561Q212.831 62.081 212.176 62.6745Q211.522 63.268 210.839 63.8286Q210.155 64.3892 209.446 64.9156Q208.736 65.4421 208.001 65.9331Q207.266 66.424 206.508 66.8783Q205.75 67.3327 204.971 67.7493Q204.191 68.1659 203.393 68.5437Q202.594 68.9215 201.777 69.2597Q200.961 69.5979 200.129 69.8956Q199.297 70.1934 198.451 70.4499Q197.605 70.7064 196.748 70.9211Q195.891 71.1359 195.024 71.3083Q194.157 71.4807 193.283 71.6104Q192.409 71.74 191.53 71.8267Q190.65 71.9133 189.767 71.9566Q188.885 72 188.001 72L35.999 72Q35.1153 72 34.2326 71.9566Q33.3499 71.9133 32.4705 71.8267Q31.591 71.74 30.7168 71.6104Q29.8427 71.4807 28.9759 71.3083Q28.1092 71.1359 27.2519 70.9211Q26.3947 70.7064 25.549 70.4499Q24.7034 70.1934 23.8713 69.8956Q23.0392 69.5979 22.2228 69.2597Q21.4063 68.9215 20.6074 68.5437Q19.8086 68.1659 19.0292 67.7493Q18.2498 67.3327 17.4918 66.8783Q16.7338 66.424 15.999 65.9331Q15.2642 65.4421 14.5544 64.9156Q13.8446 64.3892 13.1615 63.8286Q12.4783 63.268 11.8235 62.6745Q11.1687 62.081 10.5439 61.4561Q9.91897 60.8312 9.3255 60.1764Q8.73202 59.5216 8.1714 58.8385Q7.61076 58.1554 7.08433 57.4456Q6.5579 56.7358 6.06692 56.001Q5.57595 55.2662 5.12163 54.5082Q4.6673 53.7502 4.25072 52.9708Q3.83413 52.1914 3.45629 51.3926Q3.07845 50.5937 2.74026 49.7772Q2.40207 48.9608 2.10435 48.1287Q1.80664 47.2966 1.5501 46.451Q1.29357 45.6053 1.07884 44.748Q0.864117 43.8908 0.69171 43.0241Q0.519304 42.1573 0.389635 41.2831Q0.259965 40.409 0.173345 39.5295Q0.0867247 38.6501 0.0433624 37.7674Q0 36.8847 0 36.001L0 35.999Q0 35.1153 0.0433624 34.2326Q0.0867247 33.3499 0.173345 32.4705Q0.259965 31.591 0.389635 30.7168Q0.519304 29.8427 0.69171 28.9759Q0.864117 28.1092 1.07884 27.2519Q1.29357 26.3947 1.5501 25.549Q1.80664 24.7034 2.10435 23.8713Q2.40207 23.0392 2.74026 22.2228Q3.07845 21.4063 3.45629 20.6074Q3.83413 19.8086 4.25072 19.0292Q4.6673 18.2498 5.12163 17.4918Q5.57595 16.7338 6.06692 15.999Q6.5579 15.2642 7.08433 14.5544Q7.61076 13.8446 8.17139 13.1615Q8.73202 12.4783 9.3255 11.8235Q9.91897 11.1687 10.5439 10.5439Q11.1687 9.91897 11.8235 9.3255Q12.4783 8.73202 13.1615 8.1714Q13.8446 7.61076 14.5544 7.08433Q15.2642 6.5579 15.999 6.06692Q16.7338 5.57595 17.4918 5.12163Q18.2498 4.6673 19.0292 4.25072Q19.8086 3.83413 20.6074 3.45629Q21.4063 3.07845 22.2228 2.74026Q23.0392 2.40207 23.8713 2.10435Q24.7034 1.80664 25.549 1.5501Q26.3947 1.29357 27.2519 1.07884Q28.1092 0.864117 28.9759 0.69171Q29.8427 0.519304 30.7168 0.389635Q31.591 0.259965 32.4705 0.173345Q33.3499 0.0867247 34.2326 0.0433624Q35.1153 0 35.999 0Z" id="Rectangle" fill="#FAE800" fill-rule="evenodd" stroke="none" />
</svg>